<mxfile host="app.diagrams.net" modified="2022-08-22T15:31:13.263Z" agent="5.0 (Macintosh; Intel Mac OS X 10_15_7) AppleWebKit/537.36 (KHTML, like Gecko) Chrome/103.0.5060.134 Safari/537.36 Edg/103.0.1264.77" etag="fuKa5jQzhSRtT0fp5jBn" version="20.2.6" type="github" pages="3">
  <diagram id="B4OGuNu27FxEXHrBehI4" name="逻辑架构图">
    <mxGraphModel dx="1298" dy="739" grid="0" gridSize="10" guides="1" tooltips="1" connect="1" arrows="1" fold="1" page="1" pageScale="1" pageWidth="827" pageHeight="1169" math="0" shadow="0">
      <root>
        <mxCell id="0" />
        <mxCell id="1" parent="0" />
        <mxCell id="VshUzGrTxlm4C4l4ocz0-20" value="" style="rounded=0;whiteSpace=wrap;html=1;dashed=1;" vertex="1" parent="1">
          <mxGeometry x="12" y="56" width="466" height="546" as="geometry" />
        </mxCell>
        <mxCell id="VshUzGrTxlm4C4l4ocz0-8" value="" style="rounded=0;whiteSpace=wrap;html=1;fillColor=#d5e8d4;strokeColor=#82b366;" vertex="1" parent="1">
          <mxGeometry x="110" y="350" width="130" height="130" as="geometry" />
        </mxCell>
        <mxCell id="VshUzGrTxlm4C4l4ocz0-6" value="" style="rounded=0;whiteSpace=wrap;html=1;fillColor=#dae8fc;strokeColor=#6c8ebf;" vertex="1" parent="1">
          <mxGeometry x="110" y="100" width="320" height="210" as="geometry" />
        </mxCell>
        <mxCell id="VshUzGrTxlm4C4l4ocz0-27" style="edgeStyle=none;rounded=0;orthogonalLoop=1;jettySize=auto;html=1;entryX=0;entryY=0.5;entryDx=0;entryDy=0;endArrow=none;endFill=0;" edge="1" parent="1" source="VshUzGrTxlm4C4l4ocz0-2" target="VshUzGrTxlm4C4l4ocz0-3">
          <mxGeometry relative="1" as="geometry" />
        </mxCell>
        <mxCell id="VshUzGrTxlm4C4l4ocz0-2" value="k8s集群" style="rounded=1;whiteSpace=wrap;html=1;" vertex="1" parent="1">
          <mxGeometry x="140" y="170" width="140" height="100" as="geometry" />
        </mxCell>
        <mxCell id="VshUzGrTxlm4C4l4ocz0-3" value="云端Core组件" style="rounded=1;whiteSpace=wrap;html=1;" vertex="1" parent="1">
          <mxGeometry x="310" y="170" width="90" height="100" as="geometry" />
        </mxCell>
        <mxCell id="VshUzGrTxlm4C4l4ocz0-21" style="rounded=0;orthogonalLoop=1;jettySize=auto;html=1;exitX=0.5;exitY=0;exitDx=0;exitDy=0;entryX=0.25;entryY=1;entryDx=0;entryDy=0;endArrow=none;endFill=0;" edge="1" parent="1" source="VshUzGrTxlm4C4l4ocz0-5" target="VshUzGrTxlm4C4l4ocz0-3">
          <mxGeometry relative="1" as="geometry" />
        </mxCell>
        <mxCell id="VshUzGrTxlm4C4l4ocz0-5" value="边缘Core组件" style="rounded=1;whiteSpace=wrap;html=1;" vertex="1" parent="1">
          <mxGeometry x="127.5" y="400" width="95" height="50" as="geometry" />
        </mxCell>
        <mxCell id="VshUzGrTxlm4C4l4ocz0-7" value="云端集群" style="text;html=1;strokeColor=none;fillColor=none;align=center;verticalAlign=middle;whiteSpace=wrap;rounded=0;" vertex="1" parent="1">
          <mxGeometry x="240" y="110" width="60" height="30" as="geometry" />
        </mxCell>
        <mxCell id="VshUzGrTxlm4C4l4ocz0-9" value="边缘node节点" style="text;html=1;strokeColor=none;fillColor=none;align=center;verticalAlign=middle;whiteSpace=wrap;rounded=0;" vertex="1" parent="1">
          <mxGeometry x="120" y="350" width="110" height="30" as="geometry" />
        </mxCell>
        <mxCell id="VshUzGrTxlm4C4l4ocz0-10" value="" style="rounded=0;whiteSpace=wrap;html=1;fillColor=#d5e8d4;strokeColor=#82b366;" vertex="1" parent="1">
          <mxGeometry x="300" y="350" width="130" height="130" as="geometry" />
        </mxCell>
        <mxCell id="VshUzGrTxlm4C4l4ocz0-11" value="边缘Core组件" style="rounded=1;whiteSpace=wrap;html=1;" vertex="1" parent="1">
          <mxGeometry x="317.5" y="400" width="95" height="50" as="geometry" />
        </mxCell>
        <mxCell id="VshUzGrTxlm4C4l4ocz0-22" style="edgeStyle=none;rounded=0;orthogonalLoop=1;jettySize=auto;html=1;entryX=0.5;entryY=1;entryDx=0;entryDy=0;exitX=0.5;exitY=0;exitDx=0;exitDy=0;endArrow=none;endFill=0;" edge="1" parent="1" source="VshUzGrTxlm4C4l4ocz0-11" target="VshUzGrTxlm4C4l4ocz0-3">
          <mxGeometry relative="1" as="geometry" />
        </mxCell>
        <mxCell id="VshUzGrTxlm4C4l4ocz0-12" value="边缘node节点" style="text;html=1;strokeColor=none;fillColor=none;align=center;verticalAlign=middle;whiteSpace=wrap;rounded=0;" vertex="1" parent="1">
          <mxGeometry x="310" y="350" width="110" height="30" as="geometry" />
        </mxCell>
        <mxCell id="VshUzGrTxlm4C4l4ocz0-23" style="edgeStyle=none;rounded=0;orthogonalLoop=1;jettySize=auto;html=1;entryX=0.25;entryY=1;entryDx=0;entryDy=0;endArrow=none;endFill=0;" edge="1" parent="1" source="VshUzGrTxlm4C4l4ocz0-13" target="VshUzGrTxlm4C4l4ocz0-5">
          <mxGeometry relative="1" as="geometry" />
        </mxCell>
        <mxCell id="VshUzGrTxlm4C4l4ocz0-13" value="Device1" style="rounded=0;whiteSpace=wrap;html=1;fillColor=#0050ef;fontColor=#ffffff;strokeColor=#001DBC;" vertex="1" parent="1">
          <mxGeometry x="110" y="520" width="60" height="50" as="geometry" />
        </mxCell>
        <mxCell id="VshUzGrTxlm4C4l4ocz0-24" style="edgeStyle=none;rounded=0;orthogonalLoop=1;jettySize=auto;html=1;exitX=0.5;exitY=0;exitDx=0;exitDy=0;endArrow=none;endFill=0;entryX=0.75;entryY=1;entryDx=0;entryDy=0;" edge="1" parent="1" source="VshUzGrTxlm4C4l4ocz0-14" target="VshUzGrTxlm4C4l4ocz0-5">
          <mxGeometry relative="1" as="geometry" />
        </mxCell>
        <mxCell id="VshUzGrTxlm4C4l4ocz0-14" value="Device2" style="rounded=0;whiteSpace=wrap;html=1;fillColor=#60a917;fontColor=#ffffff;strokeColor=#2D7600;" vertex="1" parent="1">
          <mxGeometry x="180" y="520" width="60" height="50" as="geometry" />
        </mxCell>
        <mxCell id="VshUzGrTxlm4C4l4ocz0-25" style="edgeStyle=none;rounded=0;orthogonalLoop=1;jettySize=auto;html=1;entryX=0.25;entryY=1;entryDx=0;entryDy=0;endArrow=none;endFill=0;" edge="1" parent="1" source="VshUzGrTxlm4C4l4ocz0-15" target="VshUzGrTxlm4C4l4ocz0-11">
          <mxGeometry relative="1" as="geometry" />
        </mxCell>
        <mxCell id="VshUzGrTxlm4C4l4ocz0-15" value="Device3" style="rounded=0;whiteSpace=wrap;html=1;fillColor=#60a917;fontColor=#ffffff;strokeColor=#2D7600;" vertex="1" parent="1">
          <mxGeometry x="300" y="520" width="60" height="50" as="geometry" />
        </mxCell>
        <mxCell id="VshUzGrTxlm4C4l4ocz0-26" style="edgeStyle=none;rounded=0;orthogonalLoop=1;jettySize=auto;html=1;entryX=0.75;entryY=1;entryDx=0;entryDy=0;endArrow=none;endFill=0;" edge="1" parent="1" source="VshUzGrTxlm4C4l4ocz0-16" target="VshUzGrTxlm4C4l4ocz0-11">
          <mxGeometry relative="1" as="geometry" />
        </mxCell>
        <mxCell id="VshUzGrTxlm4C4l4ocz0-16" value="Device4" style="rounded=0;whiteSpace=wrap;html=1;fillColor=#0050ef;fontColor=#ffffff;strokeColor=#001DBC;" vertex="1" parent="1">
          <mxGeometry x="370" y="520" width="60" height="50" as="geometry" />
        </mxCell>
        <mxCell id="VshUzGrTxlm4C4l4ocz0-17" value="云端" style="text;html=1;strokeColor=none;fillColor=none;align=center;verticalAlign=middle;whiteSpace=wrap;rounded=0;" vertex="1" parent="1">
          <mxGeometry x="26" y="186" width="60" height="30" as="geometry" />
        </mxCell>
        <mxCell id="VshUzGrTxlm4C4l4ocz0-18" value="边缘端" style="text;html=1;strokeColor=none;fillColor=none;align=center;verticalAlign=middle;whiteSpace=wrap;rounded=0;" vertex="1" parent="1">
          <mxGeometry x="24" y="410" width="60" height="30" as="geometry" />
        </mxCell>
        <mxCell id="VshUzGrTxlm4C4l4ocz0-19" value="设备端" style="text;html=1;strokeColor=none;fillColor=none;align=center;verticalAlign=middle;whiteSpace=wrap;rounded=0;" vertex="1" parent="1">
          <mxGeometry x="26" y="530" width="60" height="30" as="geometry" />
        </mxCell>
      </root>
    </mxGraphModel>
  </diagram>
  <diagram id="q0oijPX-iIPaCsb3_wt0" name="物理架构图">
    <mxGraphModel dx="1298" dy="739" grid="1" gridSize="10" guides="1" tooltips="1" connect="1" arrows="1" fold="1" page="1" pageScale="1" pageWidth="827" pageHeight="1169" math="0" shadow="0">
      <root>
        <mxCell id="0" />
        <mxCell id="1" parent="0" />
      </root>
    </mxGraphModel>
  </diagram>
  <diagram id="1YQHM50lwJ_csuU7NpIr" name="部署架构">
    <mxGraphModel dx="1298" dy="739" grid="0" gridSize="10" guides="1" tooltips="1" connect="1" arrows="1" fold="1" page="1" pageScale="1" pageWidth="827" pageHeight="1169" math="0" shadow="0">
      <root>
        <mxCell id="0" />
        <mxCell id="1" parent="0" />
      </root>
    </mxGraphModel>
  </diagram>
</mxfile>
